#!OML:ASF F:\VICON\USERDATA\INSTALL\rory3\rory3.ASF
:FULLY-SPECIFIED
:DEGREES
90
root 0.8971582701385019 18.111802401670385 15.024018608378448 -2.4597610507019527 -7.669050880394407 0.3273718542797961
lfemur -10.096537928885503 -4.7272135909098605 -24.216398055992506
ltibia 34.581607025239336
lfoot -5.1441825994976895 -2.205123855373063
ltoes -12.049030792014134
rfemur -12.323968162724888 5.146491310408073 21.31768499216614
rtibia 62.18640262950878
rfoot -3.779064937628884 -8.779181230452101
rtoes 6.27308420149126
lowerback 9.455391740716989 2.3486135970934288 1.5697097128638242
upperback 0.6879460467165333 3.0750178669210455 0.4849145253690077
thorax -5.1558592497911775 1.5133038659623788 -0.3860707270150988
lowerneck -15.785402978369316 -2.848235904591521 -2.0372193261564244
upperneck 21.048467482841467 -3.6206897475686004 0.8898569239781865
head 9.428735578354846 -1.729205022224252 -0.07243147524068821
lclavicle -1.9542571985808515e-15 9.05916367070128e-16
lhumerus -33.90281213553677 1.9549598812138944 82.01184416154518
lradius 30.348879116271462
lwrist 5.092513257167421
lhand -26.346255338068104 23.26036776510638
lfingers 7.12502
lthumb 0.19624878380025457 53.267118162757555
rclavicle -1.9531997457802843e-15 9.061310541583724e-16
rhumerus -28.067379235098844 -15.931898425956277 -79.77843008344652
rradius 25.472316241836335
rwrist 4.548902427093314
rhand -17.696070507700522 22.9501132958092
rfingers 7.12502
rthumb 8.580675495562181 -6.976238655669571
91
root 0.8978815839334013 18.155674221285235 11.02226580250914 -2.21292603893183 -9.694831342132188 -1.0703900995352988
lfemur -8.76019168546928 -4.01225776646972 -23.268214907935835
ltibia 35.30682232421786
lfoot -7.150042220610045 -2.008126782055334
ltoes -13.206607843221459
rfemur -15.814591970227994 5.737969982429003 22.83126398607866
rtibia 61.90289114600017
rfoot -5.2512126782669934 -8.546441942165302
rtoes 6.16004395112561
lowerback 10.050104992710672 2.2549444011177657 2.5433411517805977
upperback 0.6186565424018783 3.105439339917788 0.7931739698572183
thorax -5.419782104378046 1.4943479855920585 -0.2890576886523625
lowerneck -15.806897956583555 -2.820641907600932 -2.162616252958368
upperneck 21.103860232500736 -3.562657964554139 0.9235924676704671
head 9.459903078100634 -1.702018828400771 -0.05001512827055879
lclavicle -1.954184916663163e-15 9.059873487560177e-16
lhumerus -33.082530625840384 1.6951858887454578 82.11135428362596
lradius 30.63798475480668
lwrist 5.3378423263909776
lhand -26.37196287770899 23.25248728021426
lfingers 7.12502
lthumb 0.14251494216527782 53.24360832925017
rclavicle -1.953522962016589e-15 9.057070777693798e-16
rhumerus -28.305166727564146 -16.432498759219975 -79.69344866391764
rradius 25.315899224055386
rwrist 4.584528790230466
rhand -17.521867557375053 22.54108252946092
rfingers 7.12502
rthumb 8.751161483820853 -7.335463572352898
92
root 0.8682037789806931 18.20214904117444 9.997289982767985 -2.2531307693975697 -10.644504890998165 -0.13181981931702524
lfemur -6.812195191635607 -3.381183418495098 -24.297604865346322
ltibia 34.85745349423411
lfoot -6.085939887362275 -2.3950852903366573
ltoes -12.02478538123889
rfemur -18.823797744201748 4.919114391711864 22.296012083234785
rtibia 59.818199047776524
rfoot -6.022703013569393 -9.109804440539197
rtoes 6.072192282832072
lowerback 10.527848878667857 2.032642440135266 1.6003402178514472
upperback 0.731509427374982 2.723029136305327 0.854792857282853
thorax -5.482835453754032 1.2913891833084183 0.06726143682170571
lowerneck -15.893582200371723 -2.7796858263708293 -2.2522477313263836
upperneck 21.17439975449845 -3.4820522228506636 0.9156161153734867
head 9.493307769325448 -1.6668935602441408 -0.030411833199495086
lclavicle -1.9551543786886436e-15 9.050942268537925e-16
lhumerus -32.668374718504424 1.1055896680417079 82.15484100388365
lradius 31.185070330445548
lwrist 5.637214206255785
lhand -26.327980378199392 23.443988238023934
lfingers 7.12502
lthumb 0.1301460020804236 53.362361479039635
rclavicle -1.9540244191602467e-15 9.052798071631152e-16
rhumerus -28.536950816608513 -16.88411663267297 -79.58979061581086
rradius 25.056528626101993
rwrist 4.556109329213282
rhand -17.367415751403662 22.23677339924026
rfingers 7.12502
rthumb 8.901673122658893 -7.609488134601471
93
root 0.8210697564870693 18.166955053993103 11.663140097853617 -2.382149038543163 -9.384238037277763 0.9838695126564607
lfemur -4.420179422460093 -2.743223973497185 -25.635106446912438
ltibia 33.70371855678329
lfoot -5.607123241216576 -1.9372448429885902
ltoes -12.320504681831103
rfemur -20.853879941881786 2.902030025605587 21.557061700873128
rtibia 55.776039043153204
rfoot -6.300252122030063 -10.374865202352083
rtoes 5.872471322759313
lowerback 10.635944709675176 1.5681679551648067 0.28006924256439303
upperback 0.8753010171914426 1.967291098340437 0.875479674386572
thorax -5.418504030781331 0.928057249245138 0.5898269307669215
lowerneck -15.964859936689995 -2.747525130761462 -2.3781259109562667
upperneck 21.23580642187675 -3.4131627349726585 0.9352298861127054
head 9.520914046012583 -1.6365461380938433 0.009215084429830683
lclavicle -1.956408166700919e-15 9.039537243925475e-16
lhumerus -32.0360464596459 0.6001811434881679 82.33266423205725
lradius 31.697256888047903
lwrist 5.861806747570286
lhand -26.23827564630363 23.77810436345827
lfingers 7.12502
lthumb 0.16486444858476723 53.61128553442769
rclavicle -1.9547921773465105e-15 9.047063048435534e-16
rhumerus -28.82017788045158 -17.290539244092272 -79.47889374607519
rradius 24.744138871126303
rwrist 4.643886441442302
rhand -17.231852503662232 22.101370705999543
rfingers 7.12502
rthumb 9.021059403001686 -7.764527635865928
